{"title":"Snow.White.And.The.Huntsman.(2012).Extended.BRRip.720p.x264.Eng.","uid":7601644,"size":3396771859,"categoryP":"video","categoryS":"hd___movies","magnet":"?xt=urn:btih:3f1b4304f9f6582217bdc006c9a9b54cfa437559&amp;dn=Snow.White.And.The.Huntsman.%282012%29.Extended.BRRip.720p.x264.Eng.&amp;tr=udp%3A%2F%2Ftracker.openbittorrent.com%3A80&amp;tr=udp%3A%2F%2Fopen.demonii.com%3A1337&amp;tr=udp%3A%2F%2Ftracker.coppersurfer.tk%3A6969&amp;tr=udp%3A%2F%2Fexodus.desync.com%3A6969","seeders":1,"leechers":0,"uploader":"Lawry1494","files":-1,"time":1346844733,"description":"General\nComplete name                            : Snow.White.And.The.Huntsman.(2012).Extended.BRRip.720p.x264.Eng.AAC.5.1.AMX.mp4\nFormat                                   : MPEG-4\nFormat profile                           : Base Media\nCodec ID                                 : isom\nFile size                                : 3.14 GiB\nDuration                                 : 2h 11mn\nOverall bit rate mode                    : Variable\nOverall bit rate                         : 3 420 Kbps\n\nVideo\nID                                       : 1\nFormat                                   : AVC\nFormat/Info                              : Advanced Video Codec\nFormat profile                           : &lt;a class=&quot;__cf_email__&quot; href=&quot;/cdn-cgi/l/email-protection&quot; data-cfemail=&quot;024a6b656a424e362c32&quot;&gt;[email&amp;#160;protected]&lt;/a&gt;&lt;script data-cfhash='f9e31' type=&quot;text/javascript&quot;&gt;\n/* &lt;![CDATA[ */!function(){try{var t=&quot;currentScript&quot;in document?document.currentScript:function(){for(var t=document.getElementsByTagName(&quot;script&quot;),e=t.length;e--;)if(t[e].getAttribute(&quot;data-cfhash&quot;))return t[e]}();if(t&amp;&amp;t.previousSibling){var e,r,n,i,c=t.previousSibling,a=c.getAttribute(&quot;data-cfemail&quot;);if(a){for(e=&quot;&quot;,r=parseInt(a.substr(0,2),16),n=2;a.length-n;n+=2)i=parseInt(a.substr(n,2),16)^r,e+=String.fromCharCode(i);e=document.createTextNode(e),c.parentNode.replaceChild(e,c)}t.parentNode.removeChild(t);}}catch(u){}}()/* ]]&gt; */&lt;/script&gt;\nFormat settings, CABAC                   : Yes\nFormat settings, ReFrames                : 8 frames\nCodec ID                                 : avc1\nCodec ID/Info                            : Advanced Video Coding\nDuration                                 : 2h 11mn\nBit rate                                 : 3 089 Kbps\nMaximum bit rate                         : 16.8 Mbps\nWidth                                    : 1 280 pixels\nHeight                                   : 544 pixels\nDisplay aspect ratio                     : 2.35:1\nFrame rate mode                          : Constant\nFrame rate                               : 23.976 fps\nColor space                              : YUV\nChroma subsampling                       : 4:2:0\nBit depth                                : 8 bits\nScan type                                : Progressive\nBits/(Pixel*Frame)                       : 0.185\nStream size                              : 2.84 GiB (90%)\nWriting library                          : x264 core 125 r2208 d9d2288\n\nAudio\nID                                       : 2\nFormat                                   : AAC\nFormat/Info                              : Advanced Audio Codec\nFormat profile                           : LC\nCodec ID                                 : 40\nDuration                                 : 2h 11mn\nBit rate mode                            : Variable\nBit rate                                 : 328 Kbps\nMaximum bit rate                         : 401 Kbps\nChannel(s)                               : 6 channels\nChannel positions                        : Front: L C R, Side: L R, LFE\nSampling rate                            : 48.0 KHz\nCompression mode                         : Lossy\nStream size                              : 308 MiB (10%)\nLanguage                                 : English\n","torrent":{"xt":"urn:btih:3f1b4304f9f6582217bdc006c9a9b54cfa437559","amp;dn":"Snow.White.And.The.Huntsman.%282012%29.Extended.BRRip.720p.x264.Eng.","amp;tr":["udp%3A%2F%2Ftracker.openbittorrent.com%3A80","udp%3A%2F%2Fopen.demonii.com%3A1337","udp%3A%2F%2Ftracker.coppersurfer.tk%3A6969","udp%3A%2F%2Fexodus.desync.com%3A6969"],"infoHash":"3f1b4304f9f6582217bdc006c9a9b54cfa437559","infoHashBuffer":{"type":"Buffer","data":[63,27,67,4,249,246,88,34,23,189,192,6,201,169,181,76,250,67,117,89]},"announce":[],"urlList":[]}}